<?xml version="1.0" encoding="UTF-8"?>
<!DOCTYPE svg PUBLIC "-//W3C//DTD SVG 1.1//EN" "http://www.w3.org/Graphics/SVG/1.1/DTD/svg11.dtd">
<!-- Creator: CorelDRAW 2019 (64-Bit) -->
<svg xmlns="http://www.w3.org/2000/svg" xml:space="preserve" width="8.5in" height="11in" version="1.1" style="shape-rendering:geometricPrecision; text-rendering:geometricPrecision; image-rendering:optimizeQuality; fill-rule:evenodd; clip-rule:evenodd"
viewBox="0 0 8500 11000"
 xmlns:xlink="http://www.w3.org/1999/xlink">
 <defs>
  <style type="text/css">
   <![CDATA[
    .str0 {stroke:#332C2B;stroke-width:138.89;stroke-miterlimit:2.61313}
    .fil1 {fill:#FEFEFE}
    .fil0 {fill:#332C2B;fill-rule:nonzero}
   ]]>
  </style>
 </defs>
 <g id="Layer_x0020_1">
  <metadata id="CorelCorpID_0Corel-Layer"/>
  <path class="fil0" d="M1934.36 8484.81l226.8 0 0 905.47 -226.8 0 0 -96.35c-44.33,42.06 -88.96,72.19 -133.57,90.66 -44.62,18.47 -93.22,27.85 -145.23,27.85 -117.38,0 -218.55,-45.19 -304.1,-135.85 -85.54,-90.38 -128.18,-202.92 -128.18,-337.35 0,-139.54 41.5,-253.79 124.2,-343.03 82.7,-88.96 183.03,-133.58 301.26,-133.58 54.57,0 105.44,10.23 153.19,30.41 47.74,20.18 91.8,50.87 132.44,91.23l0 -99.47zm-239.02 185.87c-70.48,0 -129.03,24.72 -175.35,74.46 -46.61,49.45 -69.91,113.11 -69.91,190.7 0,78.16 23.59,142.39 71.05,192.97 47.46,50.31 105.72,75.6 175.07,75.6 71.33,0 130.73,-24.72 177.63,-74.46 47.18,-49.45 70.77,-114.54 70.77,-194.96 0,-78.72 -23.59,-142.39 -70.77,-191.27 -46.89,-48.6 -106.57,-73.04 -178.48,-73.04z"/>
  <path id="1" class="fil0" d="M2944.13 8612.98l-140.39 141.25c-56.84,-56.84 -108.57,-85.26 -155.18,-85.26 -25.29,0 -45.19,5.4 -59.68,16.2 -14.5,10.8 -21.6,24.16 -21.6,40.07 0,12.22 4.55,23.3 13.64,33.54 9.09,10.23 31.83,24.16 67.92,42.06l82.99 41.49c87.54,42.92 147.79,86.97 180.47,131.59 32.69,44.91 48.89,97.2 48.89,157.45 0,80.15 -29.56,147.22 -88.67,200.65 -59.11,53.71 -138.41,80.43 -237.88,80.43 -131.87,0 -237.59,-51.44 -316.32,-154.61l140.11 -152.33c26.71,30.98 57.98,56.27 94.07,75.31 35.81,19.04 67.64,28.7 95.49,28.7 29.84,0 54.28,-7.11 72.47,-21.6 18.47,-14.49 27.57,-30.98 27.57,-49.73 0,-34.96 -32.97,-69.06 -99.19,-102.03l-76.45 -38.37c-146.65,-73.61 -219.97,-165.69 -219.97,-276.25 0,-71.33 27.57,-132.44 82.7,-183.02 55.14,-50.59 125.62,-75.89 211.45,-75.89 58.83,0 113.96,13.07 165.98,38.94 51.72,25.86 95.49,63.09 131.58,111.41z"/>
  <path id="2" class="fil0" d="M3141.94 8135.24l226.79 0 0 442.22c44.34,-38.37 88.67,-67.07 133.58,-86.11 44.62,-19.04 90.09,-28.7 135.85,-28.7 89.52,0 165.12,30.98 226.51,93.22 52.58,53.71 78.72,132.72 78.72,236.74l0 597.68 -223.39 0 0 -396.46c0,-104.59 -4.83,-175.64 -14.78,-212.58 -9.95,-37.23 -27,-64.8 -51.16,-83.27 -23.87,-18.19 -53.72,-27.28 -88.96,-27.28 -45.76,0 -85.26,15.35 -118.23,45.76 -32.69,30.41 -55.42,71.91 -68.21,124.48 -6.54,27.28 -9.95,89.24 -9.95,186.15l0 363.21 -226.79 0 0 -1255.04z"/>
  <path id="3" class="fil0" d="M5195.02 8612.98l-140.39 141.25c-56.84,-56.84 -108.57,-85.26 -155.18,-85.26 -25.29,0 -45.19,5.4 -59.68,16.2 -14.5,10.8 -21.6,24.16 -21.6,40.07 0,12.22 4.55,23.3 13.64,33.54 9.09,10.23 31.83,24.16 67.92,42.06l82.99 41.49c87.54,42.92 147.79,86.97 180.47,131.59 32.69,44.91 48.89,97.2 48.89,157.45 0,80.15 -29.56,147.22 -88.67,200.65 -59.11,53.71 -138.41,80.43 -237.88,80.43 -131.87,0 -237.59,-51.44 -316.32,-154.61l140.11 -152.33c26.71,30.98 57.98,56.27 94.07,75.31 35.81,19.04 67.64,28.7 95.49,28.7 29.84,0 54.28,-7.11 72.47,-21.6 18.47,-14.49 27.57,-30.98 27.57,-49.73 0,-34.96 -32.97,-69.06 -99.19,-102.03l-76.45 -38.37c-146.65,-73.61 -219.97,-165.69 -219.97,-276.25 0,-71.33 27.57,-132.44 82.7,-183.02 55.14,-50.59 125.62,-75.89 211.45,-75.89 58.83,0 113.96,13.07 165.98,38.94 51.72,25.86 95.49,63.09 131.58,111.41z"/>
  <path id="4" class="fil0" d="M5392.83 8135.24l226.79 0 0 442.22c44.34,-38.37 88.67,-67.07 133.58,-86.11 44.62,-19.04 90.09,-28.7 135.85,-28.7 89.52,0 165.12,30.98 226.51,93.22 52.58,53.71 78.72,132.72 78.72,236.74l0 597.68 -223.39 0 0 -396.46c0,-104.59 -4.83,-175.64 -14.78,-212.58 -9.95,-37.23 -27,-64.8 -51.16,-83.27 -23.87,-18.19 -53.72,-27.28 -88.96,-27.28 -45.76,0 -85.26,15.35 -118.23,45.76 -32.69,30.41 -55.42,71.91 -68.21,124.48 -6.54,27.28 -9.95,89.24 -9.95,186.15l0 363.21 -226.79 0 0 -1255.04z"/>
  <path id="5" class="fil0" d="M6504.63 8113.07c39.79,0 73.89,14.49 102.31,43.2 28.7,28.7 42.92,63.38 42.92,104.3 0,40.36 -14.21,74.74 -42.35,103.17 -28.14,28.42 -61.96,42.63 -101.46,42.63 -40.36,0 -74.74,-14.49 -103.17,-43.48 -28.7,-28.99 -42.92,-64.23 -42.92,-105.72 0,-39.79 14.21,-73.61 42.35,-101.74 28.14,-28.14 62.24,-42.35 102.31,-42.35zm-113.96 371.74l226.79 0 0 905.47 -226.79 0 0 -905.47z"/>
  <path id="6" class="fil0" d="M7493.37 8135.24l226.8 0 0 1255.04 -226.8 0 0 -96.35c-44.33,42.06 -88.96,72.19 -133.57,90.66 -44.62,18.47 -93.22,27.85 -145.23,27.85 -117.38,0 -218.55,-45.19 -304.1,-135.85 -85.54,-90.38 -128.18,-202.92 -128.18,-337.35 0,-139.54 41.5,-253.79 124.2,-343.03 82.7,-88.96 183.03,-133.58 301.26,-133.58 54.57,0 105.44,10.23 153.19,30.41 47.74,20.46 91.8,51.15 132.44,91.8l0 -449.61zm-239.02 535.44c-70.48,0 -129.03,24.72 -175.35,74.46 -46.61,49.45 -69.91,113.11 -69.91,190.7 0,78.16 23.59,142.39 71.05,192.97 47.46,50.31 105.72,75.6 175.07,75.6 71.33,0 130.73,-24.72 177.63,-74.46 47.18,-49.45 70.77,-114.54 70.77,-194.96 0,-78.72 -23.59,-142.39 -70.77,-191.27 -46.89,-48.6 -106.57,-73.04 -178.48,-73.04z"/>
  <path id="7" class="fil0" d="M8619.1 8135.24l226.8 0 0 1255.04 -226.8 0 0 -96.35c-44.33,42.06 -88.96,72.19 -133.57,90.66 -44.62,18.47 -93.22,27.85 -145.23,27.85 -117.38,0 -218.55,-45.19 -304.1,-135.85 -85.54,-90.38 -128.18,-202.92 -128.18,-337.35 0,-139.54 41.5,-253.79 124.2,-343.03 82.7,-88.96 183.03,-133.58 301.26,-133.58 54.57,0 105.44,10.23 153.19,30.41 47.74,20.46 91.8,51.15 132.44,91.8l0 -449.61zm-239.02 535.44c-70.48,0 -129.03,24.72 -175.35,74.46 -46.61,49.45 -69.91,113.11 -69.91,190.7 0,78.16 23.59,142.39 71.05,192.97 47.46,50.31 105.72,75.6 175.07,75.6 71.33,0 130.73,-24.72 177.63,-74.46 47.18,-49.45 70.77,-114.54 70.77,-194.96 0,-78.72 -23.59,-142.39 -70.77,-191.27 -46.89,-48.6 -106.57,-73.04 -178.48,-73.04z"/>
  <path id="8" class="fil0" d="M9164.77 8113.07c39.79,0 73.89,14.49 102.31,43.2 28.7,28.7 42.92,63.38 42.92,104.3 0,40.36 -14.21,74.74 -42.35,103.17 -28.14,28.42 -61.96,42.63 -101.46,42.63 -40.36,0 -74.74,-14.49 -103.17,-43.48 -28.7,-28.99 -42.92,-64.23 -42.92,-105.72 0,-39.79 14.21,-73.61 42.35,-101.74 28.14,-28.14 62.24,-42.35 102.31,-42.35zm-113.96 371.74l226.79 0 0 905.47 -226.79 0 0 -905.47z"/>
  <path id="9" class="fil0" d="M10153.52 8484.81l226.8 0 0 1236.28 -226.8 0 0 -427.72c-44.33,42.35 -88.96,72.76 -133.57,91.23 -44.62,18.47 -93.22,27.85 -145.23,27.85 -117.38,0 -218.55,-45.19 -304.1,-135.85 -85.54,-90.38 -128.18,-202.92 -128.18,-337.35 0,-139.54 41.5,-253.79 124.2,-343.03 82.7,-88.96 183.03,-133.58 301.26,-133.58 54.57,0 105.44,10.23 153.19,30.41 47.74,20.18 91.8,50.87 132.44,91.23l0 -99.47zm-239.02 185.87c-70.48,0 -129.03,24.72 -175.35,74.46 -46.61,49.45 -69.91,113.11 -69.91,190.7 0,78.16 23.59,142.39 71.05,192.97 47.46,50.31 105.72,75.6 175.07,75.6 71.33,0 130.73,-24.72 177.63,-74.46 47.18,-49.45 70.77,-114.54 70.77,-194.96 0,-78.72 -23.59,-142.39 -70.77,-191.27 -46.89,-48.6 -106.57,-73.04 -178.48,-73.04z"/>
  <rect class="fil1 str0" x="3547.52" y="5411.81" width="4763.89" height="2273.2"/>
  <circle class="fil1 str0" cx="5801.8" cy="3840.8" r="2102.93"/>
  <path class="fil1 str0" d="M5829.2 1837.87l885.37 1156.33c-70.82,-29.48 -147,-54.31 -227.55,-74.15 -153.07,-37.17 -314.89,-56.85 -485.46,-56.85 -133.39,0 -268.97,13.12 -408.93,37.17 -139.95,24.06 -275.54,61.23 -408.93,111.52 -131.21,50.3 -255.85,113.71 -371.75,188.06 -17.6,11.08 -34.86,22.46 -51.78,34.11l1069.02 -1396.19zm1429.47 1866.95l809.02 1056.62 2238.49 2923.57 -4476.98 0 -317.48 0c-113.71,0 -231.8,-8.74 -352.07,-26.24 -120.27,-17.5 -236.17,-43.74 -349.89,-76.54 -113.71,-34.99 -220.86,-76.54 -321.45,-126.83 -102.78,-50.3 -190.25,-107.15 -266.79,-172.76 -76.54,-65.6 -135.58,-137.76 -179.31,-218.67 -43.74,-78.72 -65.6,-168.38 -65.6,-264.6 0,-83.09 17.5,-153.07 52.48,-209.93 34.99,-59.04 80.91,-104.96 139.95,-142.14 56.85,-34.99 122.46,-63.42 192.43,-80.91 72.17,-17.49 146.52,-28.43 220.87,-30.61l26.24 21.87c13.12,161.82 56.85,301.77 129.02,419.86 72.16,118.09 159.63,214.3 264.6,288.65 104.96,74.35 220.86,129.02 347.7,166.19 126.83,37.18 253.67,54.67 378.31,54.67 118.09,0 231.8,-15.31 341.13,-48.11 107.15,-32.8 203.37,-78.72 286.47,-137.77 83.1,-59.04 150.89,-133.39 201.18,-220.86 50.3,-87.47 74.35,-185.88 74.35,-295.22 0,-113.71 -26.24,-212.11 -78.72,-297.4 -54.67,-85.29 -124.65,-164.01 -214.31,-233.98 -89.66,-69.98 -194.62,-135.58 -312.7,-194.63 -118.09,-61.23 -242.73,-122.46 -369.57,-183.69 -113.71,-52.48 -227.42,-107.15 -341.13,-161.82 -115.9,-54.67 -225.24,-113.71 -332.39,-177.13 -107.15,-63.41 -207.74,-133.39 -299.59,-207.74 -94.03,-76.54 -174.94,-157.45 -242.73,-249.29 -69.98,-89.66 -124.65,-192.44 -164.01,-303.96 -39.36,-111.53 -59.04,-236.17 -59.04,-373.94 0,-112.12 15.37,-217.83 45.12,-317.14l-671.57 877.09 -2238.49 2923.57 4159.5 0c225.24,0 443.92,-30.61 653.85,-91.84 209.93,-61.23 397.99,-150.89 559.81,-266.79 161.82,-118.09 290.84,-262.41 389.24,-432.98 96.22,-170.57 144.33,-367.38 144.33,-586.06 0,-183.69 -37.17,-343.32 -115.9,-478.9 -78.72,-135.58 -179.31,-255.85 -306.15,-360.81 -126.83,-104.96 -268.97,-199 -428.61,-279.91 -159.64,-83.1 -321.46,-161.82 -483.28,-238.36 -146.51,-69.98 -286.46,-137.77 -419.86,-205.56 -133.39,-67.79 -251.48,-142.14 -352.07,-218.68 -102.78,-78.72 -185.87,-164 -247.1,-258.04 -63.42,-91.85 -94.03,-196.81 -94.03,-314.9 0,-91.84 21.87,-179.31 65.6,-266.78 43.74,-85.28 107.15,-159.63 190.25,-227.43 80.91,-67.79 183.69,-122.46 301.78,-161.82 120.27,-41.55 255.85,-61.23 406.74,-61.23 85.28,0 172.75,8.75 262.41,28.43 87.47,19.68 168.38,50.3 240.55,94.03 72.16,41.55 133.39,96.22 181.5,164.01 48.11,67.79 72.17,150.89 74.35,249.29 0,48.11 -6.56,100.59 -17.5,159.63 -13.12,56.85 -34.99,120.27 -65.6,188.06l10.94 32.8c98.4,28.43 192.43,41.55 282.09,41.55 96.22,-2.19 177.13,-19.68 242.73,-54.67 65.6,-34.99 120.27,-76.54 159.63,-126.83 41.55,-50.3 69.98,-102.78 87.47,-161.82 13.73,-51.02 22.19,-100.27 23.78,-144.6z"/>
 </g>
</svg>
